<?xml version="1.0" encoding="utf-8"?>

<!DOCTYPE svg PUBLIC "-//W3C//DTD SVG 1.1//EN" "http://www.w3.org/Graphics/SVG/1.1/DTD/svg11.dtd">
<svg version="1.1" id="Layer_1" xmlns="http://www.w3.org/2000/svg" xmlns:xlink="http://www.w3.org/1999/xlink" x="0px" y="0px"
	 viewBox="0 0 2560 1600" enable-background="new 0 0 2560 1600" xml:space="preserve">
<pattern  width="210" height="210" patternUnits="userSpaceOnUse" id="New_Pattern_2" viewBox="0 -210 210 210" overflow="visible">
	<g>
		<polygon fill="#FCFEFD" points="0,-210 210,-210 210,0 0,0 		"/>
		<path fill="#245983" d="M5.0732-204.9729c0.038,66.6486,0,133.2917,0.0163,199.9403C71.7001-5,138.3162-5.0542,204.9268-5
			c-0.0217-66.6649,0.0163-133.3351-0.0217-200C138.2945-204.9186,71.6839-204.9783,5.0732-204.9729 M40.9822-195.2417
			c3.5583-5.484,11.8033-7.8924,17.3795-4.1008c3.1515,2.1101,2.9129,6.8997,0.4611,9.4492
			c-1.3941,1.2584-3.9001,0.8462-4.6595-0.9221c-0.9276-1.7629,0.3689-4.1767,2.3813-4.2961
			c1.2693-0.2224,2.2348,0.7919,3.2654,1.3344c-0.5641-1.5893-0.9221-3.5692-2.5765-4.4208
			c-2.685-1.3561-6.0861-0.5262-7.8761,1.8877c0.971,0.716,2.3487,1.2476,2.6416,2.5603c0.2875,1.2476-0.7703,2.3053-1.8171,2.7718
			c-2.2457,1.0035-4.7626,1.4971-6.7262,3.0702c-3.4282,2.5983-4.7083,7.1004-4.8873,11.2283
			c1.3235-2.7176,1.969-5.9179,4.3503-7.9792c2.2728-1.9961,5.1097-3.8404,8.2612-3.6343c2.5874,0.0976,5.4297,1.7792,5.6901,4.5673
			c-1.9473,0.4556-3.8458,1.0632-5.766,1.6165c0.895,0.7648,2.4247,1.5079,1.8768,2.94c-0.792,2.0341-3.1841,2.3596-5.05,2.7176
			c-2.1155,0.3146-4.2581,1.6978-4.7734,3.8838c-0.7594,2.4843,1.0143,4.7571,1.036,7.2306
			c-2.2836-0.2821-4.3286-2.0016-6.7045-1.3941c-2.327,0.4719-3.8567,2.685-4.1496,4.9361
			c-0.3363,1.8605-0.7702,4.2961-2.8478,4.9524c-1.47,0.5316-2.1697-1.1554-2.761-2.148c-0.5316,2.0233-1.1717,4.014-1.7466,6.0264
			c-3.081-0.4122-4.6758-3.759-4.5076-6.596c0.2007-2.8695,1.8877-5.3972,3.7699-7.4693c2.1155-2.3325,5.2724-3.0376,8.0605-4.2201
			c-4.8982,0.0488-10.4201,2.007-12.579,6.7587c-1.2042,2.0721-1.2259,4.9632-3.3251,6.4115
			c-1.8551,0.9926-3.1027-1.1391-3.9272-2.4409c-2.3867,1.8172-3.3088,5.2074-1.8768,7.8978
			c0.8353,1.5893,2.7122,1.9744,4.2798,2.4572c-0.8082-1.2639-1.8443-2.8423-0.857-4.3232c1.1771-2.403,5.1639-1.7575,5.5653,0.8842
			c0.4828,2.4572-2.148,3.8513-4.155,4.2961c-2.7447,0.7214-5.6521-0.9113-6.7641-3.4499
			c-2.6037-5.6413-0.179-12.9044,5.0012-16.2133c5.2399-3.5529,11.7274-3.9706,17.8189-4.5998
			c-4.7409-1.1717-9.639-0.4014-14.445-0.7486c-3.8079-0.8136-6.0644-4.3503-8.7765-6.8238
			c0.7431-0.9655,1.3724-2.0992,2.4626-2.7067c1.215-0.5804,2.582-0.6455,3.8892-0.8679c-1.4971-1.0252-3.0268-2.1535-3.8513-3.8241
			c-1.9799-3.5746-1.4537-7.8002-2.0992-11.7003c3.8784,0.678,8.0714,0.1519,11.6352,2.1101
			c1.6707,0.8516,2.8586,2.3379,3.8621,3.873c0.2061-1.215,0.3309-2.4572,0.7703-3.618c0.5696-1.2259,1.7955-1.9148,2.8098-2.7284
			c2.4626,2.7067,5.9179,4.9741,6.8075,8.7332c0.4177,4.8222-0.5207,9.7746,0.8896,14.5046
			C36.6862-183.5197,37.4998-190.0072,40.9822-195.2417 M152.3489-199.4835c3.6885-2.5115,8.6843-1.9961,12.5031-0.0488
			c4.5618,2.4572,6.9323,7.4801,8.0334,12.3349c0.857,3.2112,0.8841,6.5417,1.3127,9.818
			c1.3018-4.8114,0.2766-9.8289,0.8245-14.7053c0.9764-3.6451,4.3015-5.88,6.7641-8.5053c0.7974,0.6238,1.687,1.1608,2.3487,1.9419
			c0.9384,1.2205,0.8896,2.8478,1.1608,4.2852c1.2367-1.5568,2.5223-3.2112,4.3937-4.0248
			c3.5041-1.6544,7.4693-1.215,11.1958-1.8443c-0.6564,3.7102-0.2007,7.6591-1.8389,11.1524
			c-0.8408,1.9094-2.5006,3.2437-4.155,4.4208c1.3561,0.1953,2.8044,0.2061,4.0357,0.8896c0.9601,0.6618,1.6165,1.6599,2.3542,2.544
			c-2.7284,2.6037-5.1097,6.238-9.064,6.9431c-4.7517,0.2441-9.5739-0.3797-14.2605,0.6997
			c6.2868,0.6618,13.0509,1.074,18.3559,4.9253c5.2019,3.6343,7.4151,11.5701,3.8621,17.0323
			c-2.1318,3.3143-7.2632,3.0593-9.7258,0.3092c-1.2096-1.5947-0.2875-4.2147,1.7032-4.5944
			c1.6219-0.5099,3.4336,0.6889,3.7157,2.3379c0.3255,1.3344-0.7214,2.4409-1.3669,3.477c1.6382-0.5424,3.7157-0.933,4.5076-2.6905
			c1.2693-2.7284,0.3526-5.9776-1.9961-7.7947c-0.7214,1.3127-1.8388,3.2709-3.6506,2.5982
			c-2.3216-1.2313-2.2891-4.2798-3.4824-6.3519c-2.1372-4.7626-7.594-6.8943-12.5356-6.8835
			c2.7772,1.2096,5.9559,1.9093,8.0443,4.2744c2.0124,2.3379,3.9272,5.2074,3.6017,8.4457
			c-0.1573,2.4301-1.7303,5.2996-4.4208,5.4623c-0.7106-1.9202-1.2367-3.9055-1.752-5.8854
			c-0.575,1.1228-1.5893,2.723-3.0864,1.9962c-2.9183-1.508-1.9256-5.4026-3.6343-7.7351
			c-1.3344-2.0721-4.2472-2.7393-6.4332-1.7141c-1.112,0.3309-2.3759,1.5405-3.3956,0.3851c0.5479-2.5549,2.2782-5.3484,0.537-7.849
			c-1.8822-3.7102-7.4422-1.6544-9.2864-5.2996c-0.5153-1.5351,1.0035-2.2511,2.0287-2.9888
			c-2.0233-0.4773-3.9977-1.1174-5.9939-1.687c0.499-2.5766,2.9454-4.2744,5.4677-4.4534c3.336-0.3634,6.3736,1.5893,8.7386,3.7319
			c2.2619,2.0992,2.9129,5.2128,4.2147,7.887c-0.2115-4.6866-1.9202-9.9482-6.3898-12.2047
			c-2.1535-1.3886-5.2562-1.3018-6.8292-3.5041c-1.0469-1.8497,1.0198-3.2112,2.4138-3.9598
			c-1.7792-2.3216-5.0012-3.222-7.6863-1.969c-1.7358,0.7811-2.2077,2.7664-2.7067,4.4208c1.291-0.7757,2.8695-1.8551,4.372-0.9004
			c2.3704,1.1825,1.7575,5.2616-0.9276,5.5599c-1.9582,0.4231-3.3305-1.3073-3.8892-2.94
			C149.1431-194.683,149.9839-197.943,152.3489-199.4835 M68.6842-190.3272c2.8695-3.7102,7.67-5.4352,12.2698-5.1802
			c4.2744,0.0651,8.1094,2.1426,12.004,3.656c-6.0156,1.8171-12.2373-0.3309-18.345,0.5316
			c2.4626,0.1953,4.9416,0.2224,7.3933,0.5804c2.9888,0.3146,6.0318,1.0523,9.0261,0.358c2.9345-0.5424,5.5382-2.1101,7.8544-3.938
			c-1.1445,3.3902-3.7157,6.3736-7.2198,7.4042c-4.3829,1.3669-9.0206,0.2604-13.3004-0.9655
			c-3.3088-0.857-7.1221-0.9709-10.1218,0.8896c-2.0992,1.4809-2.2186,4.3178-2.186,6.6448
			c3.1081-2.6199,6.2597-5.9776,10.5937-6.1729c4.0899-0.0705,7.1926,3.0919,9.5956,6.0318
			c2.0341,2.5928,3.7211,5.4297,5.3321,8.2992c-4.2527-3.3685-9.7366-5.6684-15.2369-4.6269
			c-9.9265,1.8388-18.0738,9.1183-28.2987,9.9211c7.3717-2.1914,12.6821-8.0117,17.9491-13.2733
			C64.9089-183.7746,66.5958-187.4469,68.6842-190.3272 M118.691-191.8949c3.5041-1.1879,6.7967-3.1461,10.5449-3.4933
			c4.8331-0.6184,10.1597,0.7702,13.3926,4.5944c2.3704,2.9291,4.0845,6.775,3.0213,10.5883
			c5.267,5.2236,10.5286,11.0547,17.8731,13.2679c-10.1977-0.7703-18.3017-8.1148-28.2173-9.8777
			c-5.5057-1.0469-10.9246,1.2964-15.2152,4.5998c2.4843-4.1496,4.8873-8.5108,8.6138-11.6948
			c2.045-1.7792,4.7897-3.0539,7.5452-2.4843c3.7862,0.7106,6.4983,3.6397,9.3461,5.9776c0.0054-2.2619-0.0217-5.0338-2.0612-6.4983
			c-3.3739-2.1426-7.7134-1.7954-11.3802-0.6455c-4.5564,1.291-9.818,2.1806-14.1575-0.2549
			c-2.5494-1.3452-4.2472-3.8241-5.1531-6.5038c3.4716,2.9671,8.0985,4.7734,12.7038,4.0954
			c3.835-0.5479,7.6917-0.895,11.5538-1.1337C130.9662-192.1552,124.712-190.0018,118.691-191.8949 M45.8641-167.301
			c5.7281-4.985,11.0168-10.4581,15.9475-16.2296c-1.5893,4.4262-4.1659,8.5921-7.8381,11.5918
			C51.5813-169.9101,48.7553-168.4727,45.8641-167.301 M149.8808-183.4926c4.9361,5.7335,10.214,11.1687,15.8987,16.1645
			c-3.797-1.5025-7.4151-3.618-10.1923-6.6448C152.9727-176.6579,151.2152-180.0264,149.8808-183.4926 M25.3981-149.7425
			c6.0698-4.5673,11.966-9.3841,17.2819-14.8247C39.5719-157.2877,33.0573-151.7224,25.3981-149.7425 M169.0395-164.4695
			c5.3864,5.305,11.1633,10.1814,17.2385,14.6782C178.6405-151.6844,172.1802-157.2769,169.0395-164.4695 M39.7021-156.3981
			c1.432-1.8497,2.3216-4.0194,3.2763-6.1349c-1.0252,6.6882-4.6866,12.5085-7.9412,18.3017
			c-2.4572,4.4262-4.7626,9.2864-4.4045,14.4883c0.1573,3.8296,1.9202,7.3445,3.976,10.4961
			c-3.9543-2.6471-7.9629-5.3972-10.9408-9.1671c-1.3615-1.79-2.4355-3.9489-2.3325-6.2542
			c0.0163-3.0919,2.0775-5.6521,4.0791-7.811C30.0848-147.2039,35.7315-150.9955,39.7021-156.3981 M168.6706-162.533
			c2.6688,7.2957,8.9121,12.2535,14.6023,17.1625c3.8458-1.3452,7.9629,0.2604,11.0873,2.5549
			c4.1008,3.1678,5.6901,8.6409,5.2073,13.6476c-0.2766,3.4499-1.8334,6.596-2.685,9.9156
			c-2.3704-5.7715-0.537-12.0583-1.7141-18.025c-0.0976,3.9543-0.2332,7.9141-0.4231,11.8684
			c-0.2387,4.4751,1.8931,8.7548,5.0229,11.8467c-3.7916-0.8679-7.1167-3.6506-8.2341-7.4313
			c-1.3723-4.2798-0.4719-8.7982,0.4014-13.078c0.5587-3.3197,0.2441-7.095-1.9582-9.7855
			c-1.6653-1.7412-4.3123-1.5622-6.5146-1.4049c2.8586,2.8857,6.3898,5.7823,6.9106,10.0892
			c0.3146,3.5421-1.9311,6.6394-4.3286,9.0044c-2.6579,2.6525-5.7606,4.8005-8.8688,6.8889
			c2.1752-3.4824,4.0248-7.3771,3.9489-11.5755c-0.0814-5.88-3.1786-11.0819-5.9668-16.0614
			C172.3212-151.7983,169.6633-156.9189,168.6706-162.533 M49.2977-160.9817c3.4878,1.3561,6.5905,3.6614,10.3225,4.3991
			c2.9996,0.754,6.0752-0.0054,9.0206-0.6509c-0.6021,1.7032-1.3506,3.3902-1.5731,5.2019
			c-0.2929,2.1697,0.2495,4.3232,0.6075,6.4495c-1.9961,0.0054-4.0357-0.1031-5.983,0.4122
			c-1.9256,0.5153-3.5746,1.6599-5.305,2.5928c0.3905-3.7699,0.0651-7.773-2.0341-11.0385
			C52.9754-156.2896,50.5236-158.237,49.2977-160.9817 M156.173-157.1629c2.9671-0.8299,5.3755-2.978,8.3914-3.6343
			c-2.2511,3.3902-5.3375,6.3193-6.6014,10.2953c-0.895,2.5549-0.7486,5.2996-0.5913,7.9521
			c-1.687-0.9384-3.3143-2.0558-5.1965-2.5766c-1.9799-0.5695-4.0682-0.4285-6.1024-0.499c0.358-2.1155,0.8896-4.2581,0.6238-6.417
			c-0.217-1.8226-0.9655-3.5204-1.6056-5.2236C148.6929-156.3005,152.6038-155.7309,156.173-157.1629 M92.7899-148.1857
			c3.3034,1.8226,6.7262,4.1279,8.066,7.8381c1.2259,3.1298,0.358,6.5526-0.9655,9.498c0.9438,1.2801,2.1372,2.5874,2.1751,4.2689
			c0.1519,2.2619-1.3181,4.3666-3.1841,5.522c-1.3941,0.9004-3.0756,0.2712-4.5781,0.1085
			c1.4537,1.0144,3.2275,2.1426,5.0663,1.4103c3.0322-1.0903,4.2418-4.3937,6.5255-6.417c2.7935,1.7087,4.0248,5.3646,7.3066,6.3139
			c1.8768,0.5479,3.5421-0.6618,4.9795-1.687c-1.5025,0.2495-3.1407,1.0144-4.589,0.179c-2.0612-1.1391-3.7699-3.4336-3.4607-5.88
			c0.1627-1.5459,1.215-2.7556,2.0775-3.9706c-1.5242-2.902-2.4084-6.379-1.2367-9.5685c1.291-3.6668,4.5619-6.1024,7.8273-7.9304
			c-0.7269,1.3561-1.4483,2.9346-0.6401,4.4371c1.3995,2.7718,4.3666,4.4642,5.4352,7.4693
			c1.3181,3.0756-1.4591,5.8094-1.5459,8.8579c1.9256-1.6761,3.0756-4.0248,3.7916-6.4332c0.4773-1.6707,1.1608-3.4716,2.761-4.3774
			c3.0593-1.9636,6.8889-1.215,10.2194-2.3379c1.5514-0.4828,2.9454-1.3452,4.3232-2.1969
			c-1.2747,1.9202-2.3921,4.014-2.6959,6.3356c-0.4611,2.9834-0.2658,6.3736-2.3487,8.8145
			c-1.3181,1.6707-3.5529,1.9093-5.408,2.6579c-1.8822,0.6618-3.6018,1.7521-4.909,3.2654
			c3.0647-0.0597,5.7932-2.9291,8.8742-1.5134c3.0051,1.0523,4.6595,4.0628,7.4476,5.4243c1.5134,0.8191,3.0973,0.0759,4.4534-0.678
			c-1.9039,3.3902-4.4913,6.8075-8.3697,7.9846c-3.1081,1.0198-6.4007,0.0325-9.2051-1.3832
			c-1.1662,0.8787-2.3704,1.8714-3.8675,2.0612c-2.4843,0.3634-4.8005-1.3669-5.9396-3.4553
			c-0.8353-1.3995-0.1139-2.9834,0.1627-4.4317c-1.112,1.394-2.3162,3.1244-1.6327,5.0012
			c1.0143,3.0268,4.2472,4.3177,6.1891,6.6394c-1.6978,2.5549-4.8059,3.835-6.1946,6.6068
			c-0.9384,1.8931,0.1085,3.8784,1.2422,5.3972c-0.1302-1.2476-0.537-2.5332-0.2061-3.7753
			c0.8082-1.9094,2.6199-3.3685,4.6215-3.8513c2.1318-0.4339,3.9977,0.8733,5.5165,2.1806
			c2.8423-1.3507,6.1512-2.2294,9.2213-1.0957c3.8838,1.2693,6.2976,4.8276,8.1256,8.2667
			c-1.5351-1.036-3.5258-1.6707-5.1802-0.4882c-2.8532,1.8877-5.1802,5.1639-8.9176,5.2182
			c-2.3325-0.4502-4.3666-1.866-6.7424-2.2131c1.687,2.3813,4.5184,3.4553,7.1818,4.3503c1.6707,0.4719,3.0756,1.7087,3.7645,3.3034
			c1.2042,2.7122,0.8245,5.7552,1.3723,8.6084c0.3363,1.9907,1.1554,3.8513,2.0504,5.6413
			c-2.3541-1.2151-4.8927-2.1535-7.5561-2.2999c-2.723-0.217-5.7227-0.1953-8.0009-1.9256
			c-1.7304-1.2313-2.0341-3.4553-2.8261-5.2779c-0.7269-1.9148-1.9202-3.6451-3.515-4.9361
			c0.2495,3.1298,3.2926,5.9667,1.6978,9.1454c-1.0469,2.8912-3.8675,4.6161-5.088,7.3825
			c-0.754,1.4917,0.0651,3.0105,0.7431,4.3449c-3.0051-1.7412-6.1891-3.7211-7.6917-7.0028
			c-1.6273-3.2817-0.9493-7.1655,0.6455-10.317c-0.8082-1.0849-1.7954-2.1318-2.1046-3.4878
			c-0.6509-2.6199,1.0903-5.3375,3.4065-6.4712c1.3452-0.7757,2.8695-0.1085,4.2744,0.0759
			c-1.5622-1.1391-3.618-2.3108-5.5437-1.2639c-3.6831,1.6381-4.1496,6.0644-6.2814,9.0423
			c-1.8714-3.0593-2.7881-7.1384-6.2705-8.8416c-1.9148-0.9981-4.0682-0.038-5.5762,1.2367
			c1.4429-0.1193,2.9996-0.7702,4.3666,0.0054c1.8768,1.0252,3.3631,2.9779,3.5041,5.1531c0.0434,1.79-1.0686,3.3034-2.1318,4.6378
			c1.4212,2.7935,2.3596,6.059,1.3724,9.1508c-1.1445,3.9055-4.589,6.4712-7.9629,8.3969c0.895-1.508,1.4591-3.439,0.3634-5.0067
			c-1.9473-2.9183-5.5003-5.1694-5.5762-9.0315c0.4231-2.2836,1.7521-4.3232,1.9582-6.6719
			c-2.2511,1.8009-3.3034,4.5781-4.0845,7.2523c-0.4014,1.5947-1.4429,3.0051-2.9183,3.7482
			c-3.0105,1.6707-6.6123,1.0252-9.8018,2.0884c-1.5676,0.4828-2.9671,1.3669-4.3394,2.2457
			c1.5676-2.2565,2.7501-4.8331,2.902-7.6157c0.2983-3.119,0.5641-6.9865,3.5638-8.7711c3.0756-1.3127,6.8292-1.8497,8.8633-4.8222
			c-3.0756,0.3309-6.0156,3.1027-9.1183,1.4537c-2.8966-1.1228-4.4696-4.1062-7.2686-5.3429
			c-1.4646-0.7377-2.9454,0.0597-4.2798,0.6672c1.8605-3.2058,4.2255-6.4658,7.8598-7.7568
			c3.2221-1.2042,6.7316-0.3146,9.6716,1.2259c1.2205-0.9113,2.5006-1.9473,4.0845-2.0938c2.3108-0.217,4.4154,1.3507,5.6033,3.222
			c0.9004,1.4103,0.2387,3.1081,0.1356,4.6432c1.0415-1.4863,2.1643-3.3143,1.3778-5.1802c-1.036-3.1027-4.589-3.8838-6.6122-6.1349
			c1.9311-2.7067,5.4352-4.014,6.7967-7.1275c0.8625-1.8985-0.3092-3.8025-1.4971-5.2345c0.2224,1.2476,0.8733,2.5386,0.3906,3.8079
			c-0.8896,2.224-3.1461,3.9109-5.5599,4.0031c-1.8009,0.0108-3.2654-1.1337-4.5402-2.2728
			c-3.0539,1.4971-6.7478,2.2782-9.9753,0.8408c-3.4661-1.47-5.6467-4.7246-7.3988-7.8978c1.5188,0.9113,3.4282,1.508,5.0338,0.4339
			c2.9834-1.8768,5.3972-5.3863,9.2918-5.2562c2.224,0.537,4.193,1.8443,6.4821,2.186c-1.9311-2.8152-5.3863-3.6072-8.348-4.8493
			c-2.8369-1.4212-3.4499-4.909-3.58-7.7785c-0.0705-3.2383-0.8625-6.4441-2.4518-9.281c2.7501,1.4863,5.8149,2.3433,8.9447,2.4138
			c2.9725,0.141,6.6014,0.6835,8.1311,3.6072c1.215,2.978,2.045,6.417,4.8439,8.3697c-0.3363-3.0756-3.2058-5.8583-1.7466-9.0152
			c1.0306-3.1841,4.4859-4.8385,5.3267-8.0768C94.1893-145.8099,93.3052-147.0249,92.7899-148.1857 M14.7177-140.0384
			c2.7935-3.9489,7.7134-6.1078,12.4922-5.9559c-1.7087,0.9601-4.0194,0.5641-5.4406,2.0775
			c-2.3704,2.8695-2.5711,6.9106-1.8985,10.431c0.9384,4.4154,1.7195,9.2213-0.0976,13.5283
			c-1.2964,3.2817-4.3883,5.5382-7.7351,6.4061c1.9419-2.1806,3.6723-4.6486,4.4154-7.5127
			c0.9276-3.0105,0.4882-6.1783,0.2875-9.2539c-0.1899-2.4192-0.0759-4.8493-0.0922-7.274
			c-1.3778,6.0698,0.5316,12.5302-1.8443,18.4264c-0.8082-3.5583-2.6254-6.8997-2.6796-10.61
			C11.9404-133.3393,12.5913-137.093,14.7177-140.0384 M11.9567-95.7705c4.6541,1.036,8.3534,5.1151,8.7494,9.894
			c1.036,5.6684-2.2402,11.1904-0.7648,16.8154c0.4068,1.4917,1.0306,3.043,2.2565,4.052c1.7466,1.2476,4.0031,1.1445,6.0427,1.0306
			c-2.4952-2.6688-5.6033-5.1097-6.6339-8.7765c-0.8028-2.6905,0.1465-5.5599,1.7792-7.7351
			c2.9237-3.9869,7.0896-6.7912,11.1253-9.5251c-3.0051,4.5402-4.8819,10.1597-3.439,15.5949
			c2.5332,9.7258,10.3604,17.3036,11.8467,27.4145c-2.685-7.2198-8.9013-12.08-14.51-16.9727
			c-3.4716,1.3669-7.2415-0.0597-10.2411-1.9094c-4.2255-2.7556-6.2814-7.9412-6.0807-12.8719
			c-0.0759-3.976,1.7683-7.5886,2.7284-11.3639c2.3379,5.88,0.4936,12.2969,1.8009,18.345
			c-0.0325-3.7807,0.0868-7.5615,0.3851-11.3314C17.381-87.851,15.2493-92.4509,11.9567-95.7705 M192.261-90.0804
			c1.4374-2.9346,4.3069-4.8656,7.4205-5.6521c-2.7881,2.9834-4.9741,6.7912-4.9307,10.9788
			c0.0814,4.2581,0.396,8.5107,0.3743,12.7743c1.2422-5.9884-0.5913-12.2915,1.7249-18.1118
			c0.9438,3.4119,2.4735,6.6882,2.7501,10.2574c0.3851,4.947-1.253,10.3496-5.343,13.4198
			c-3.0864,2.2457-7.1818,3.7916-10.968,2.4681c-5.6304,4.8656-11.8738,9.7475-14.4775,17.0052
			c1.3832-9.9699,8.9989-17.488,11.6894-26.986c1.6436-5.5436-0.1627-11.429-3.3468-16.0506
			c4.0357,2.5928,8.0551,5.4243,11.0059,9.2647c1.7087,2.224,2.8261,5.1965,1.9311,7.9846
			c-1.0686,3.6343-4.1225,6.1024-6.6394,8.744c2.1752,0.1248,4.7463,0.2712,6.4332-1.3723
			c2.5006-2.9454,2.6525-7.1764,1.8768-10.7998C190.7802-80.7072,190.0967-85.7464,192.261-90.0804 M56.3981-65.1936
			c1.649,0.9493,3.2654,2.0287,5.1151,2.5603c2.0124,0.5912,4.1333,0.4394,6.2054,0.5099c-0.396,2.0287-0.9113,4.0845-0.6835,6.1674
			c0.1953,1.8931,0.9709,3.6506,1.5731,5.4406c-3.3251-0.8136-6.8835-1.4754-10.214-0.3092
			c-3.2817,0.8136-5.9722,3.0268-9.1834,3.9977c1.649-2.8966,4.1984-5.1802,5.6467-8.2124
			C56.5609-58.1312,56.6965-61.7546,56.3981-65.1936 M151.622-62.4652c2.0938-0.4611,3.8838-1.6924,5.7335-2.7176
			c-0.2115,3.2492-0.2604,6.6828,1.291,9.6499c1.4429,3.2709,4.2147,5.6684,5.9125,8.782
			c-3.5095-1.2747-6.5743-3.6397-10.2954-4.372c-3.0376-0.792-6.1674-0.0705-9.14,0.6401c0.6997-1.9582,1.5351-3.9164,1.6382-6.021
			c0.0705-1.9094-0.3689-3.7753-0.7106-5.6359C147.9063-62.2049,149.794-62.0693,151.622-62.4652 M10.1992-57.323
			c2.0504-3.4336,7.2198-3.3468,9.818-0.6238c1.0686,1.3073,0.7214,3.4282-0.716,4.3177c-1.6327,1.1988-4.2038,0.1356-4.5944-1.8226
			c-0.4285-1.3669,0.6618-2.4898,1.2856-3.5746c-1.611,0.4882-3.5421,0.8842-4.3991,2.5223
			c-1.3995,2.6525-0.5533,6.1349,1.9094,7.8598c0.8082-1.2096,1.6653-2.9617,3.439-2.6471c2.4952,1.1283,2.4843,4.2906,3.6777,6.417
			c2.0829,4.8168,7.5669,6.8509,12.4814,6.992c-2.5115-1.3127-5.5382-1.7955-7.5452-3.9435
			c-2.2782-2.3487-4.334-5.4189-4.0574-8.8362c0.1844-2.5169,1.8117-5.2345,4.5239-5.5057
			c0.5479,1.9853,1.1717,3.9543,1.6761,5.9559c0.6618-1.0306,1.3452-2.582,2.8695-2.1101c2.1914,0.8191,2.4789,3.439,2.8586,5.4243
			c0.3905,2.2891,2.2348,4.3666,4.6269,4.5619c2.1968,0.3472,4.0303-1.3181,6.1837-1.4266
			c-0.1519,2.5603-1.9961,5.0229-0.9384,7.5995c0.7594,2.1589,2.9942,3.3088,5.1531,3.5529
			c1.8822,0.3092,4.3611,0.9764,4.6486,3.222c-0.0271,1.2747-1.3452,1.7087-2.2294,2.2999
			c2.0124,0.5316,3.9977,1.1608,6.0101,1.6924c-0.3146,2.7664-3.0702,4.4208-5.6576,4.5239
			c-3.1407,0.2224-5.9993-1.5622-8.2612-3.5746c-2.4247-2.1318-3.1949-5.3809-4.41-8.2395
			c0.1248,4.7137,1.8443,9.9862,6.2759,12.3132c2.1643,1.4157,5.2019,1.3832,6.8889,3.477
			c1.1608,1.8714-0.9655,3.2817-2.3596,4.0899c1.8768,2.4084,5.4026,3.2763,8.0822,1.7032
			c1.5025-0.8245,1.7792-2.6471,2.2457-4.1333c-1.3018,0.7974-2.978,1.8388-4.4371,0.7485
			c-2.1806-1.2422-1.611-4.9632,0.8733-5.4406c2.0721-0.5804,3.6289,1.3615,4.1496,3.1353c1.1174,2.5711,0.1248,5.804-2.2891,7.2469
			c-3.9435,2.4843-9.1942,1.8009-13.0509-0.5207c-4.1062-2.5549-6.1783-7.2469-7.274-11.7762
			c-0.8679-3.2546-0.9655-6.6339-1.3669-9.959c-1.0415,4.6866-0.4719,9.4871-0.6943,14.228
			c-0.716,3.9218-4.3286,6.2434-6.8455,9.0098c-1.0252-0.7865-2.2457-1.4646-2.7989-2.6905
			c-0.4665-1.1445-0.5641-2.3976-0.7865-3.6018c-1.1717,1.7195-2.5982,3.3794-4.5727,4.2038
			c-3.4499,1.5242-7.3066,1.0849-10.9408,1.7683c0.6455-3.7645,0.1573-7.7947,1.8931-11.3097
			c0.8625-1.828,2.4572-3.1353,4.0465-4.3069c-1.291-0.179-2.6471-0.2061-3.8404-0.7974c-1.0957-0.6075-1.7304-1.7358-2.4735-2.6959
			c2.6959-2.4898,4.9633-6.0535,8.7874-6.8346c4.8168-0.32,9.7095,0.3092,14.4721-0.7269
			c-6.2163-0.6563-12.8719-1.112-18.166-4.8222C9.1252-43.9412,6.8253-51.7739,10.1992-57.323 M25.3493-59.5469
			c3.8947,1.0903,7.632,2.902,10.6642,5.6033c2.864,2.4843,4.985,5.6901,6.6502,9.0695
			C37.2123-50.1303,31.4788-55.0936,25.3493-59.5469 M176.9698-54.9959c2.7555-2.1318,6.0047-3.5204,9.3027-4.5944
			c-5.9939,4.6269-11.901,9.3841-17.2168,14.7921C170.8675-48.7363,173.4712-52.3868,176.9698-54.9959 M190.8995-58.3156
			c1.6707-1.3561,3.9977-1.9907,6.1078-1.4863c2.5223,0.7269,4.1225,3.1895,4.6432,5.6521
			c0.8733,4.551-0.6455,9.5956-4.1659,12.6821c-5.2833,4.6812-12.6875,5.1965-19.3757,5.9125
			c4.806,1.1174,9.7692,0.32,14.624,0.7703c3.6831,0.9438,5.8474,4.372,8.5433,6.775c-0.7865,1.0252-1.4646,2.2674-2.7013,2.8044
			c-1.1608,0.4611-2.4138,0.575-3.6397,0.7431c1.5676,1.0686,3.0864,2.3216,3.9272,4.0682
			c1.8768,3.5366,1.3398,7.6646,2.0124,11.4887c-3.8079-0.6997-7.9303-0.1465-11.4507-2.0124
			c-1.7629-0.8354-2.9834-2.4084-4.1496-3.9109c-0.1953,1.3886-0.1898,2.8966-0.9818,4.1171
			c-0.6726,0.8896-1.6273,1.4863-2.5006,2.1535c-2.4084-2.6362-5.7443-4.8222-6.7641-8.4186
			c-0.5804-4.8873,0.499-9.9265-0.8191-14.7433c-0.5912,6.1891-1.112,12.8177-4.8385,18.0576
			c-3.5855,5.2399-11.4833,7.4964-16.9944,4.0194c-3.4607-2.1209-3.2275-7.4856-0.2604-9.9048
			c1.5188-1.1066,3.9326-0.1899,4.3937,1.611c0.5641,1.6544-0.5696,3.6289-2.3162,3.8838c-1.2964,0.2983-2.3487-0.678-3.4173-1.2151
			c0.499,1.8985,1.2801,4.2147,3.4661,4.6812c2.544,0.8571,5.2724-0.1573,6.8943-2.224c-1.3398-0.8516-3.2437-1.9961-2.4409-3.8892
			c1.5676-2.2891,4.7029-2.2077,6.8997-3.6018c4.4967-2.2945,6.238-7.632,6.3681-12.3783c-1.2096,2.6579-1.79,5.7281-3.9706,7.8273
			c-2.6416,2.5277-6.3248,4.7788-10.1163,3.759c-2.1155-0.4719-3.7048-2.1155-4.4208-4.1116
			c2.045-0.716,4.1171-1.3398,6.2108-1.9039c-1.0632-0.5912-2.647-1.2747-2.148-2.799c0.8896-2.3379,3.7482-2.5006,5.8366-2.9942
			c2.5711-0.4665,4.5076-3.0431,4.2093-5.6359c-0.2604-1.5568-0.9981-2.9834-1.291-4.5347c0.1953-0.179,0.5858-0.537,0.7811-0.7214
			c2.3704,0.9276,5.1694,2.4138,7.5778,0.7052c3.5963-1.8822,1.611-7.312,5.1422-9.1454c1.4808-0.7052,2.4898,0.8733,3.0485,1.9961
			c0.4773-1.9799,1.1554-3.9055,1.6436-5.8854c2.7881,0.1465,4.4208,3.0213,4.5293,5.5545
			c0.2875,3.3197-1.7249,6.3031-3.8892,8.6192c-2.0721,2.1968-5.1151,2.8261-7.7514,4.0465
			c4.9036-0.0814,10.355-2.1046,12.4922-6.8509c1.2422-2.0667,1.1391-5.1585,3.477-6.4007c1.8551-0.7323,2.94,1.2693,3.6885,2.5928
			c2.3541-1.7846,3.2492-5.05,2.0016-7.7514c-0.7648-1.8117-2.8803-2.2131-4.5402-2.7556c0.7811,1.1337,1.9311,2.4898,1.2368,3.9652
			c-0.575,1.8714-3.1678,2.5982-4.6595,1.3561C189.5922-54.7898,189.5109-57.1819,190.8995-58.3156 M47.9525-42.3356
			c10.5991,0.5804,18.9254,8.565,29.3022,9.9482c5.2128,0.7052,10.2791-1.5622,14.3094-4.7083
			c-2.2728,4.0465-4.6975,8.1202-8.1202,11.3151c-2.0884,1.9582-4.9524,3.4607-7.8978,2.8966
			c-3.8024-0.716-6.5851-3.6289-9.4329-6.0156c-0.1302,2.2511,0.0705,4.9144,1.9528,6.4495
			c3.1732,2.0884,7.3011,1.9256,10.8269,0.895c4.1333-1.2205,8.6409-2.0938,12.8719-0.8136c3.4716,1.074,6.059,4.052,7.1167,7.4747
			c-3.3956-3.0105-7.9792-4.8059-12.5464-4.231c-3.9652,0.5804-7.9521,1.0577-11.966,1.0469
			c6.1783,1.1825,12.5464-1.2747,18.6488,0.6726c-3.4607,1.1391-6.6773,3.0973-10.3604,3.4716
			c-5.2779,0.7757-11.1307-1.0089-14.3039-5.4786c-1.8388-2.7935-3.4716-6.2542-2.3162-9.6444
			C60.7755-34.351,55.438-40.3232,47.9525-42.3356 M136.3417-32.6803c9.5197-2.1046,17.4663-9.0695,27.4091-9.6716
			c-7.5832,2.0178-12.8936,8.1311-18.242,13.4523c-3.0647,2.7664-6.4061,6.0752-10.8161,6.1295
			c-4.193-0.2061-7.3011-3.5258-9.6933-6.6502c-1.8388-2.4301-3.4227-5.05-4.8602-7.7351
			C124.5601-33.4288,130.5811-31.3134,136.3417-32.6803 M45.9834-41.945c3.7428,1.4863,7.3391,3.5529,10.0838,6.5417
			c2.6471,2.7339,4.4425,6.1566,5.7986,9.6824C56.946-31.4815,51.6518-36.9167,45.9834-41.945 M157.7298-37.3669
			c2.3704-2.0016,5.1477-3.4444,8.0117-4.6161c-5.6359,5.0772-11.0276,10.431-15.8553,16.2838
			C151.4376-30.1688,154.025-34.3618,157.7298-37.3669 M141.1259-17.0691c-3.1732,2.8098-7.6754,3.618-11.7924,3.1732
			c-3.7862-0.3471-7.1167-2.3053-10.6371-3.5475c6.0373-1.8605,12.2915,0.4882,18.3993-0.5912
			c-1.8877-0.1031-3.7807-0.141-5.6684-0.32c-3.7048-0.2604-7.4476-1.4537-11.147-0.4828
			c-2.7501,0.5587-5.1314,2.0829-7.3716,3.6994c1.0035-3.0864,3.2492-5.8095,6.3356-6.9648
			c4.3557-1.6598,9.1779-0.7486,13.5174,0.5262c3.5692,1.0523,7.7839,1.2584,10.9734-0.9601
			c1.8389-1.5134,1.7575-4.1442,2.1697-6.2814C146.5937-24.3974,144.4348-19.9331,141.1259-17.0691z"/>
		<path fill="#FCFEFD" d="M40.9822-195.2417c-3.4824,5.2345-4.2961,11.722-4.5402,17.8731
			c-1.4103-4.73-0.4719-9.6824-0.8896-14.5046c-0.8896-3.759-4.3449-6.0264-6.8075-8.7332
			c-1.0143,0.8137-2.2402,1.5025-2.8098,2.7284c-0.4394,1.1608-0.5641,2.403-0.7703,3.618
			c-1.0035-1.5351-2.1914-3.0213-3.8621-3.873c-3.5638-1.9582-7.7568-1.432-11.6352-2.1101
			c0.6455,3.9001,0.1193,8.1256,2.0992,11.7003c0.8245,1.6707,2.3542,2.799,3.8513,3.8241
			c-1.3073,0.2224-2.6742,0.2875-3.8892,0.8679c-1.0903,0.6075-1.7195,1.7412-2.4626,2.7067
			c2.7122,2.4735,4.9687,6.0101,8.7765,6.8238c4.8059,0.3472,9.7041-0.4231,14.445,0.7486
			c-6.0915,0.6292-12.579,1.0469-17.8189,4.5998c-5.1802,3.3088-7.6049,10.572-5.0012,16.2133
			c1.112,2.5386,4.0194,4.1713,6.7641,3.4499c2.007-0.4448,4.6378-1.8389,4.155-4.2961c-0.4014-2.6416-4.3883-3.2871-5.5653-0.8842
			c-0.9872,1.4808,0.0488,3.0593,0.857,4.3232c-1.5676-0.4828-3.4444-0.8679-4.2798-2.4572
			c-1.432-2.6905-0.5099-6.0807,1.8768-7.8978c0.8245,1.3018,2.0721,3.4336,3.9272,2.4409
			c2.0992-1.4483,2.1209-4.3395,3.3251-6.4115c2.1589-4.7517,7.6808-6.7099,12.579-6.7587
			c-2.7881,1.1825-5.9451,1.8877-8.0605,4.2201c-1.8822,2.0721-3.5692,4.5998-3.7699,7.4693
			c-0.1682,2.8369,1.4266,6.1837,4.5076,6.596c0.575-2.0124,1.215-4.0031,1.7466-6.0264c0.5912,0.9926,1.291,2.6796,2.761,2.148
			c2.0775-0.6563,2.5115-3.0919,2.8478-4.9524c0.2929-2.2511,1.8226-4.4642,4.1496-4.9361c2.3759-0.6075,4.4208,1.112,6.7045,1.3941
			c-0.0217-2.4735-1.7954-4.7463-1.036-7.2306c0.5153-2.186,2.6579-3.5692,4.7734-3.8838c1.866-0.358,4.2581-0.6835,5.05-2.7176
			c0.5479-1.432-0.9818-2.1752-1.8768-2.94c1.9202-0.5533,3.8187-1.1608,5.766-1.6165c-0.2604-2.7881-3.1027-4.4696-5.6901-4.5673
			c-3.1515-0.2061-5.9884,1.6382-8.2612,3.6343c-2.3813,2.0612-3.0268,5.2616-4.3503,7.9792
			c0.179-4.1279,1.4591-8.6301,4.8873-11.2283c1.9636-1.5731,4.4805-2.0667,6.7262-3.0702
			c1.0469-0.4665,2.1046-1.5242,1.8171-2.7718c-0.2929-1.3127-1.6707-1.8443-2.6416-2.5603c1.79-2.4138,5.1911-3.2437,7.8761-1.8877
			c1.6544,0.8516,2.0124,2.8315,2.5765,4.4208c-1.0306-0.5424-1.9961-1.5568-3.2654-1.3344
			c-2.0124,0.1193-3.3088,2.5332-2.3813,4.2961c0.7594,1.7683,3.2654,2.1806,4.6595,0.9221
			c2.4518-2.5494,2.6905-7.3391-0.4611-9.4492C52.7855-203.134,44.5406-200.7256,40.9822-195.2417 M23.6298-187.832
			c1.5242,0.8136,3.2709,0.9818,4.9578,1.1554c0.499,3.2546,1.7141,6.3736,3.6343,9.0532c-2.7176-1.8551-5.766-3.1678-9.0369-3.6668
			c-0.217-1.573-0.3038-3.2166-1.0089-4.6703c-1.2259-2.582-3.3305-4.5835-5.0717-6.8075
			C19.2795-191.1246,21.1835-189.0905,23.6298-187.832z"/>
		<path fill="#FCFEFD" d="M152.3489-199.4835c-2.365,1.5405-3.2058,4.8005-2.0178,7.3391c0.5587,1.6327,1.931,3.3631,3.8892,2.94
			c2.685-0.2983,3.298-4.3774,0.9276-5.5599c-1.5025-0.9547-3.081,0.1248-4.372,0.9004c0.499-1.6544,0.971-3.6397,2.7067-4.4208
			c2.685-1.253,5.9071-0.3526,7.6863,1.969c-1.3941,0.7486-3.4607,2.1101-2.4138,3.9598c1.573,2.2023,4.6758,2.1155,6.8292,3.5041
			c4.4697,2.2565,6.1783,7.5181,6.3898,12.2047c-1.3018-2.6742-1.9527-5.7878-4.2147-7.887
			c-2.365-2.1426-5.4026-4.0954-8.7386-3.7319c-2.5223,0.179-4.9687,1.8768-5.4677,4.4534c1.9961,0.5696,3.9706,1.2096,5.9939,1.687
			c-1.0252,0.7377-2.544,1.4537-2.0287,2.9888c1.8443,3.6451,7.4042,1.5893,9.2864,5.2996c1.7412,2.5006,0.0108,5.2941-0.537,7.849
			c1.0198,1.1554,2.2836-0.0542,3.3956-0.3851c2.186-1.0252,5.0988-0.358,6.4332,1.7141c1.7086,2.3324,0.716,6.2271,3.6343,7.7351
			c1.4971,0.7269,2.5115-0.8733,3.0864-1.9962c0.5153,1.9799,1.0415,3.9652,1.752,5.8854c2.6905-0.1627,4.2635-3.0322,4.4208-5.4623
			c0.3255-3.2383-1.5893-6.1078-3.6017-8.4457c-2.0884-2.365-5.267-3.0647-8.0443-4.2744
			c4.9415-0.0109,10.3984,2.1209,12.5356,6.8835c1.1934,2.0721,1.1608,5.1206,3.4824,6.3519
			c1.8117,0.6726,2.9291-1.2856,3.6506-2.5982c2.3487,1.8171,3.2654,5.0663,1.9961,7.7947
			c-0.7919,1.7575-2.8694,2.148-4.5076,2.6905c0.6455-1.036,1.6924-2.1426,1.3669-3.477c-0.2821-1.649-2.0938-2.8478-3.7157-2.3379
			c-1.9907,0.3797-2.9129,2.9996-1.7032,4.5944c2.4626,2.7501,7.594,3.0051,9.7258-0.3092
			c3.5529-5.4623,1.3398-13.3981-3.8621-17.0323c-5.305-3.8513-12.0691-4.2635-18.3559-4.9253
			c4.6866-1.0794,9.5088-0.4556,14.2605-0.6997c3.9543-0.7052,6.3356-4.3395,9.064-6.9431c-0.7377-0.8842-1.394-1.8822-2.3542-2.544
			c-1.2313-0.6835-2.6796-0.6943-4.0357-0.8896c1.6544-1.1771,3.3143-2.5115,4.155-4.4208
			c1.6382-3.4933,1.1825-7.4422,1.8389-11.1524c-3.7265,0.6292-7.6917,0.1898-11.1958,1.8443
			c-1.8714,0.8136-3.157,2.4681-4.3937,4.0248c-0.2712-1.4374-0.2224-3.0647-1.1608-4.2852
			c-0.6618-0.7811-1.5514-1.3181-2.3487-1.9419c-2.4626,2.6254-5.7877,4.8602-6.7641,8.5053
			c-0.5479,4.8765,0.4773,9.894-0.8245,14.7053c-0.4285-3.2763-0.4556-6.6068-1.3127-9.818
			c-1.1012-4.8548-3.4716-9.8777-8.0334-12.3349C161.0332-201.4796,156.0374-201.9949,152.3489-199.4835 M187.3249-181.2957
			c-3.1678,0.5316-6.1891,1.7249-8.8471,3.5312c1.7141-2.7067,2.9779-5.7009,3.4607-8.885
			c1.6436-0.2224,3.3631-0.3417,4.8548-1.1337c2.4518-1.2584,4.4045-3.2437,6.5743-4.909
			C190.5578-189.3997,187.2598-185.9444,187.3249-181.2957z"/>
		<path fill="#FCFEFD" d="M65.9937-180.1675c-5.267,5.2616-10.5774,11.0819-17.9491,13.2733
			c10.2248-0.8028,18.3722-8.0822,28.2987-9.9211c5.5003-1.0415,10.9842,1.2584,15.2369,4.6269
			c-1.611-2.8695-3.298-5.7064-5.3321-8.2992c-2.403-2.94-5.5057-6.1024-9.5956-6.0318c-4.334,0.1953-7.4856,3.5529-10.5937,6.1729
			c-0.0325-2.327,0.0868-5.1639,2.186-6.6448c2.9996-1.8605,6.8129-1.7466,10.1218-0.8896
			c4.2798,1.2259,8.9176,2.3325,13.3004,0.9655c3.5041-1.0306,6.0752-4.014,7.2198-7.4042c-2.3162,1.828-4.9199,3.3956-7.8544,3.938
			c-2.9942,0.6943-6.0373-0.0434-9.0261-0.358c-2.4518-0.358-4.9307-0.3851-7.3933-0.5804
			c6.1078-0.8625,12.3295,1.2856,18.345-0.5316c-3.8947-1.5134-7.7297-3.5909-12.004-3.656
			c-4.5998-0.2549-9.4003,1.47-12.2698,5.1802C66.5958-187.4469,64.9089-183.7746,65.9937-180.1675z"/>
		<path fill="#FCFEFD" d="M137.1011-191.3578c-3.8621,0.2387-7.7188,0.5858-11.5538,1.1337
			c-4.6052,0.678-9.2322-1.1283-12.7038-4.0954c0.9059,2.6796,2.6037,5.1585,5.1531,6.5038
			c4.3395,2.4355,9.601,1.5459,14.1575,0.2549c3.6668-1.1499,8.0063-1.4971,11.3802,0.6455
			c2.0396,1.4646,2.0667,4.2364,2.0612,6.4983c-2.8478-2.3379-5.5599-5.267-9.3461-5.9776
			c-2.7556-0.5695-5.5003,0.7052-7.5452,2.4843c-3.7265,3.1841-6.1295,7.5452-8.6138,11.6948
			c4.2906-3.3034,9.7095-5.6467,15.2152-4.5998c9.9156,1.7629,18.0196,9.1074,28.2173,9.8777
			c-7.3445-2.2131-12.6061-8.0443-17.8731-13.2679c1.0632-3.8133-0.6509-7.6591-3.0213-10.5883
			c-3.2329-3.8241-8.5596-5.2128-13.3926-4.5944c-3.7482,0.3472-7.0408,2.3053-10.5449,3.4933
			C124.712-190.0018,130.9662-192.1552,137.1011-191.3578z"/>
		<path fill="#245983" d="M22.1761-185.9606c0.7052,1.4537,0.792,3.0973,1.0089,4.6703c3.2709,0.499,6.3193,1.8117,9.0369,3.6668
			c-1.9202-2.6796-3.1353-5.7986-3.6343-9.0532c-1.687-0.1736-3.4336-0.3417-4.9578-1.1554
			c-2.4464-1.2585-4.3503-3.2926-6.5255-4.9361C18.8456-190.5442,20.9502-188.5426,22.1761-185.9606z"/>
		<path fill="#245983" d="M186.7933-187.7832c-1.4917,0.7919-3.2112,0.9113-4.8548,1.1337
			c-0.4828,3.1841-1.7466,6.1783-3.4607,8.885c2.6579-1.8063,5.6793-2.9996,8.8471-3.5312
			c-0.0651-4.6486,3.2329-8.1039,6.0427-11.3965C191.1978-191.027,189.2451-189.0417,186.7933-187.7832z"/>
		<path fill="#FCFEFD" d="M53.9734-171.9388c3.6723-2.9996,6.2488-7.1655,7.8381-11.5918
			c-4.9307,5.7715-10.2194,11.2446-15.9475,16.2296C48.7553-168.4727,51.5813-169.9101,53.9734-171.9388z"/>
		<path fill="#FCFEFD" d="M155.5872-173.9729c2.7772,3.0268,6.3953,5.1422,10.1923,6.6448
			c-5.6847-4.9958-10.9626-10.431-15.8987-16.1645C151.2152-180.0264,152.9727-176.6579,155.5872-173.9729z"/>
		<path fill="#FCFEFD" d="M42.68-164.5671c-5.3158,5.4406-11.2121,10.2574-17.2819,14.8247
			C33.0573-151.7224,39.5719-157.2877,42.68-164.5671z"/>
		<path fill="#FCFEFD" d="M186.278-149.7913c-6.0752-4.4967-11.8521-9.3732-17.2385-14.6782
			C172.1802-157.2769,178.6405-151.6844,186.278-149.7913z"/>
		<path fill="#FCFEFD" d="M25.4144-142.4793c-2.0016,2.1589-4.0628,4.7192-4.0791,7.811c-0.1031,2.3053,0.971,4.4642,2.3325,6.2542
			c2.9779,3.7699,6.9865,6.52,10.9408,9.1671c-2.0558-3.1515-3.8187-6.6665-3.976-10.4961
			c-0.358-5.2019,1.9473-10.0621,4.4045-14.4883c3.2546-5.7932,6.916-11.6135,7.9412-18.3017
			c-0.9547,2.1155-1.8443,4.2852-3.2763,6.1349C35.7315-150.9955,30.0848-147.2039,25.4144-142.4793z"/>
		<path fill="#FCFEFD" d="M175.1581-146.9164c2.7881,4.9795,5.8854,10.1814,5.9668,16.0614
			c0.0759,4.1984-1.7737,8.0931-3.9489,11.5755c3.1081-2.0884,6.2108-4.2364,8.8688-6.8889
			c2.3976-2.365,4.6432-5.4623,4.3286-9.0044c-0.5207-4.3069-4.052-7.2035-6.9106-10.0892
			c2.2023-0.1573,4.8493-0.3363,6.5146,1.4049c2.2023,2.6905,2.5169,6.4658,1.9582,9.7855
			c-0.8733,4.2798-1.7738,8.7982-0.4014,13.078c1.1174,3.7807,4.4425,6.5634,8.2341,7.4313
			c-3.1298-3.0919-5.2616-7.3717-5.0229-11.8467c0.1898-3.9543,0.3255-7.9141,0.4231-11.8684
			c1.1771,5.9668-0.6563,12.2535,1.7141,18.025c0.8516-3.3197,2.4084-6.4658,2.685-9.9156
			c0.4828-5.0067-1.1066-10.4798-5.2073-13.6476c-3.1244-2.2945-7.2415-3.9001-11.0873-2.5549
			c-5.6901-4.909-11.9335-9.8668-14.6023-17.1625C169.6633-156.9189,172.3212-151.7983,175.1581-146.9164z"/>
		<path fill="#FCFEFD" d="M54.3532-153.6154c2.0992,3.2654,2.4247,7.2686,2.0341,11.0385c1.7304-0.933,3.3793-2.0775,5.305-2.5928
			c1.9473-0.5153,3.9869-0.4068,5.983-0.4122c-0.358-2.1263-0.9004-4.2798-0.6075-6.4495c0.2224-1.8117,0.971-3.4987,1.5731-5.2019
			c-2.9454,0.6455-6.021,1.4049-9.0206,0.6509c-3.7319-0.7377-6.8346-3.043-10.3225-4.3991
			C50.5236-158.237,52.9754-156.2896,54.3532-153.6154z"/>
		<path fill="#FCFEFD" d="M145.0911-157.266c0.6401,1.7032,1.3886,3.401,1.6056,5.2236c0.2658,2.1589-0.2658,4.3015-0.6238,6.417
			c2.0341,0.0705,4.1225-0.0705,6.1024,0.499c1.8822,0.5207,3.5095,1.6381,5.1965,2.5766
			c-0.1573-2.6525-0.3038-5.3972,0.5913-7.9521c1.2639-3.976,4.3503-6.9052,6.6014-10.2953
			c-3.0159,0.6563-5.4243,2.8044-8.3914,3.6343C152.6038-155.7309,148.6929-156.3005,145.0911-157.266z"/>
		<path fill="#FCFEFD" d="M92.7899-148.1857c0.5153,1.1608,1.3995,2.3758,0.9493,3.7157c-0.8408,3.2383-4.2961,4.8927-5.3267,8.0768
			c-1.4591,3.157,1.4103,5.9396,1.7466,9.0152c-2.799-1.9528-3.6289-5.3918-4.8439-8.3697
			c-1.5297-2.9237-5.1585-3.4661-8.1311-3.6072c-3.1298-0.0705-6.1946-0.9276-8.9447-2.4138
			c1.5893,2.8369,2.3813,6.0427,2.4518,9.281c0.1302,2.8695,0.7431,6.3573,3.58,7.7785c2.9617,1.2422,6.417,2.0341,8.348,4.8493
			c-2.2891-0.3417-4.2581-1.649-6.4821-2.186c-3.8947-0.1302-6.3085,3.3794-9.2918,5.2562c-1.6056,1.074-3.515,0.4773-5.0338-0.4339
			c1.7521,3.1732,3.9326,6.4278,7.3988,7.8978c3.2275,1.4374,6.9214,0.6563,9.9753-0.8408
			c1.2747,1.1391,2.7393,2.2836,4.5402,2.2728c2.4138-0.0922,4.6703-1.7792,5.5599-4.0031
			c0.4828-1.2693-0.1682-2.5603-0.3906-3.8079c1.1879,1.432,2.3596,3.336,1.4971,5.2345c-1.3615,3.1135-4.8656,4.4208-6.7967,7.1275
			c2.0233,2.2511,5.5762,3.0322,6.6122,6.1349c0.7865,1.866-0.3363,3.694-1.3778,5.1802c0.1031-1.5351,0.7648-3.2329-0.1356-4.6432
			c-1.1879-1.8714-3.2926-3.439-5.6033-3.222c-1.5839,0.1465-2.864,1.1825-4.0845,2.0938c-2.94-1.5405-6.4495-2.4301-9.6716-1.2259
			c-3.6343,1.291-5.9993,4.551-7.8598,7.7568c1.3344-0.6075,2.8152-1.4049,4.2798-0.6672c2.799,1.2367,4.372,4.2201,7.2686,5.3429
			c3.1027,1.649,6.0427-1.1228,9.1183-1.4537c-2.0341,2.9725-5.7877,3.5095-8.8633,4.8222
			c-2.9996,1.7846-3.2654,5.6521-3.5638,8.7711c-0.1519,2.7827-1.3344,5.3592-2.902,7.6157
			c1.3724-0.8787,2.7718-1.7629,4.3394-2.2457c3.1895-1.0632,6.7913-0.4177,9.8018-2.0884
			c1.4754-0.7431,2.5169-2.1535,2.9183-3.7482c0.7811-2.6742,1.8334-5.4514,4.0845-7.2523
			c-0.2061,2.3487-1.5351,4.3883-1.9582,6.6719c0.0759,3.8621,3.6289,6.1132,5.5762,9.0315
			c1.0957,1.5676,0.5316,3.4987-0.3634,5.0067c3.3739-1.9256,6.8184-4.4913,7.9629-8.3969
			c0.9872-3.0919,0.0488-6.3573-1.3724-9.1508c1.0632-1.3344,2.1751-2.8478,2.1318-4.6378
			c-0.141-2.1752-1.6273-4.1279-3.5041-5.1531c-1.3669-0.7757-2.9237-0.1248-4.3666-0.0054
			c1.508-1.2747,3.6614-2.2348,5.5762-1.2367c3.4824,1.7032,4.3991,5.7823,6.2705,8.8416c2.1318-2.978,2.5983-7.4042,6.2814-9.0423
			c1.9256-1.0469,3.9814,0.1248,5.5437,1.2639c-1.4049-0.1844-2.9291-0.8516-4.2744-0.0759
			c-2.3162,1.1337-4.0574,3.8513-3.4065,6.4712c0.3092,1.3561,1.2964,2.403,2.1046,3.4878
			c-1.5948,3.1515-2.2728,7.0353-0.6455,10.317c1.5025,3.2817,4.6866,5.2616,7.6917,7.0028
			c-0.678-1.3344-1.4971-2.8532-0.7431-4.3449c1.2205-2.7664,4.0411-4.4913,5.088-7.3825c1.5947-3.1786-1.4483-6.0156-1.6978-9.1454
			c1.5948,1.291,2.7881,3.0213,3.515,4.9361c0.7919,1.8226,1.0957,4.0465,2.8261,5.2779c2.2782,1.7304,5.2779,1.7087,8.0009,1.9256
			c2.6633,0.1465,5.2019,1.0849,7.5561,2.2999c-0.895-1.79-1.7141-3.6506-2.0504-5.6413c-0.5479-2.8532-0.1682-5.8962-1.3723-8.6084
			c-0.6889-1.5947-2.0938-2.8315-3.7645-3.3034c-2.6633-0.895-5.4948-1.969-7.1818-4.3503c2.3759,0.3472,4.41,1.7629,6.7424,2.2131
			c3.7374-0.0542,6.0644-3.3305,8.9176-5.2182c1.6544-1.1825,3.6451-0.5479,5.1802,0.4882c-1.828-3.439-4.2418-6.9974-8.1256-8.2667
			c-3.0702-1.1337-6.379-0.2549-9.2213,1.0957c-1.5188-1.3073-3.3848-2.6145-5.5165-2.1806
			c-2.0016,0.4828-3.8133,1.9419-4.6215,3.8513c-0.3309,1.2422,0.0759,2.5277,0.2061,3.7753
			c-1.1337-1.5188-2.1806-3.5041-1.2422-5.3972c1.3886-2.7718,4.4968-4.052,6.1946-6.6068
			c-1.9419-2.3216-5.1748-3.6126-6.1891-6.6394c-0.6835-1.8768,0.5207-3.6072,1.6327-5.0012
			c-0.2766,1.4483-0.9981,3.0322-0.1627,4.4317c1.1391,2.0884,3.4553,3.8187,5.9396,3.4553
			c1.4971-0.1898,2.7013-1.1825,3.8675-2.0612c2.8044,1.4157,6.0969,2.403,9.2051,1.3832c3.8784-1.1771,6.4658-4.5944,8.3697-7.9846
			c-1.3561,0.754-2.94,1.4971-4.4534,0.678c-2.7881-1.3615-4.4425-4.372-7.4476-5.4243c-3.081-1.4157-5.8094,1.4537-8.8742,1.5134
			c1.3073-1.5134,3.0268-2.6037,4.909-3.2654c1.8551-0.7486,4.0899-0.9872,5.408-2.6579c2.0829-2.4409,1.8877-5.8311,2.3487-8.8145
			c0.3038-2.3216,1.4212-4.4154,2.6959-6.3356c-1.3778,0.8516-2.7718,1.7141-4.3232,2.1969
			c-3.3305,1.1228-7.1601,0.3743-10.2194,2.3379c-1.6002,0.9059-2.2836,2.7067-2.761,4.3774
			c-0.716,2.4084-1.866,4.7571-3.7916,6.4332c0.0868-3.0485,2.864-5.7823,1.5459-8.8579c-1.0686-3.0051-4.0357-4.6975-5.4352-7.4693
			c-0.8082-1.5025-0.0868-3.081,0.6401-4.4371c-3.2654,1.828-6.5363,4.2635-7.8273,7.9304
			c-1.1717,3.1895-0.2875,6.6665,1.2367,9.5685c-0.8625,1.215-1.9148,2.4247-2.0775,3.9706
			c-0.3092,2.4464,1.3995,4.7409,3.4607,5.88c1.4483,0.8353,3.0864,0.0705,4.589-0.179c-1.4375,1.0252-3.1027,2.2348-4.9795,1.687
			c-3.2817-0.9493-4.513-4.6052-7.3066-6.3139c-2.2836,2.0233-3.4933,5.3267-6.5255,6.417
			c-1.8388,0.7323-3.6126-0.396-5.0663-1.4103c1.5025,0.1627,3.1841,0.792,4.5781-0.1085c1.866-1.1554,3.336-3.26,3.1841-5.522
			c-0.038-1.6815-1.2313-2.9888-2.1751-4.2689c1.3235-2.9454,2.1914-6.3682,0.9655-9.498
			C99.516-144.0578,96.0933-146.3631,92.7899-148.1857 M74.1953-134.7225c0.4719-0.4339,0.9438-0.8625,1.4212-1.291
			c3.7211,1.6761,5.5328,5.5274,7.4042,8.9013C79.6305-129.0216,75.904-131.0123,74.1953-134.7225 M126.2796-126.521
			c1.8334-3.3034,3.5583-7.2849,7.3065-8.782c0.6672,0.1898,1.7141,0.9167,1.1445,1.7141
			C133.1251-130.0956,129.3715-128.452,126.2796-126.521 M104.5878-114.9672c0.9818,1.3615,1.9853,2.9129,3.6397,3.5041
			c1.1445,0.4611,2.3596,0.0325,3.4933-0.2278c-1.4863,2.9291,0.7757,5.7498,3.26,7.1276c-1.3344,0.9167-2.902,1.8931-3.2871,3.5855
			c-0.2712,1.0306,0.141,2.0504,0.3743,3.0485c-1.0903-0.2604-2.2457-0.7269-3.3522-0.2821
			c-1.5839,0.4719-2.4464,1.9907-3.3034,3.2763c-0.9818-1.4754-2.0884-3.1081-3.8838-3.6451
			c-1.0686-0.3363-2.1697,0.0325-3.222,0.2224c1.4754-2.9345-0.8733-5.7281-3.3631-7.0516c1.215-0.7919,2.582-1.5785,3.1841-2.9725
			c0.575-1.1879,0.1031-2.4898-0.1682-3.6831c0.9927,0.2441,2.0178,0.7377,3.0539,0.4014
			C102.7109-112.0652,103.6819-113.6165,104.5878-114.9672 M82.3209-82.6057c-2.0287,3.3522-3.9272,7.2686-7.7839,8.8254
			c-0.3797-0.4557-0.7594-0.9113-1.1391-1.3669C74.9818-78.9606,78.9416-80.718,82.3209-82.6057 M132.8918-74.8164
			c0.5045,0.8028-0.4502,1.4971-0.7757,2.1589c-3.7645-1.6924-5.8203-5.446-7.708-8.9013
			C127.5055-79.7525,131.1723-78.1686,132.8918-74.8164z"/>
		<path fill="#FCFEFD" d="M12.1248-129.7756c0.0542,3.7102,1.8714,7.0516,2.6796,10.61c2.3759-5.8962,0.4665-12.3566,1.8443-18.4264
			c0.0163,2.4247-0.0976,4.8548,0.0922,7.274c0.2007,3.0756,0.6401,6.2434-0.2875,9.2539
			c-0.7431,2.8641-2.4735,5.3321-4.4154,7.5127c3.3468-0.8679,6.4387-3.1244,7.7351-6.4061
			c1.8171-4.3069,1.036-9.1128,0.0976-13.5283c-0.6726-3.5204-0.4719-7.5615,1.8985-10.431
			c1.4212-1.5134,3.7319-1.1174,5.4406-2.0775c-4.7788-0.1519-9.6987,2.007-12.4922,5.9559
			C12.5913-137.093,11.9404-133.3393,12.1248-129.7756z"/>
		<path fill="#245983" d="M83.0207-127.1122c-1.8714-3.3739-3.6831-7.2252-7.4042-8.9013c-0.4773,0.4285-0.9493,0.857-1.4212,1.291
			C75.904-131.0123,79.6305-129.0216,83.0207-127.1122z"/>
		<path fill="#245983" d="M134.7307-133.5889c0.5696-0.7974-0.4773-1.5242-1.1445-1.7141c-3.7482,1.4971-5.4731,5.4786-7.3065,8.782
			C129.3715-128.452,133.1251-130.0956,134.7307-133.5889z"/>
		<path fill="#245983" d="M101.0131-111.6638c-1.036,0.3363-2.0612-0.1573-3.0539-0.4014c0.2712,1.1933,0.7431,2.4952,0.1682,3.6831
			c-0.6021,1.3941-1.969,2.1806-3.1841,2.9725c2.4898,1.3235,4.8385,4.1171,3.3631,7.0516c1.0523-0.1898,2.1535-0.5587,3.222-0.2224
			c1.7954,0.537,2.902,2.1697,3.8838,3.6451c0.857-1.2856,1.7195-2.8044,3.3034-3.2763c1.1066-0.4448,2.2619,0.0217,3.3522,0.2821
			c-0.2332-0.9981-0.6455-2.0178-0.3743-3.0485c0.3851-1.6924,1.9528-2.6688,3.2871-3.5855
			c-2.4843-1.3778-4.7463-4.1984-3.26-7.1276c-1.1337,0.2604-2.3487,0.6889-3.4933,0.2278
			c-1.6544-0.5913-2.6579-2.1426-3.6397-3.5041C103.6819-113.6165,102.7109-112.0652,101.0131-111.6638z"/>
		<path fill="#FCFEFD" d="M17.0013-83.1102c-0.2983,3.7699-0.4177,7.5507-0.3851,11.3314
			c-1.3073-6.0481,0.537-12.4651-1.8009-18.345c-0.9601,3.7753-2.8044,7.3879-2.7284,11.3639
			c-0.2007,4.9307,1.8551,10.1163,6.0807,12.8719c2.9996,1.8497,6.7695,3.2763,10.2411,1.9094
			c5.6087,4.8927,11.825,9.7529,14.51,16.9727c-1.4863-10.1109-9.3136-17.6887-11.8467-27.4145
			c-1.4429-5.4352,0.4339-11.0548,3.439-15.5949c-4.0357,2.7339-8.2016,5.5382-11.1253,9.5251
			c-1.6327,2.1752-2.582,5.0446-1.7792,7.7351c1.0306,3.6668,4.1388,6.1078,6.6339,8.7765
			c-2.0395,0.1139-4.2961,0.217-6.0427-1.0306c-1.2259-1.0089-1.8497-2.5603-2.2565-4.052
			c-1.4754-5.625,1.8009-11.147,0.7648-16.8154c-0.396-4.7788-4.0954-8.8579-8.7494-9.894
			C15.2493-92.4509,17.381-87.851,17.0013-83.1102z"/>
		<path fill="#FCFEFD" d="M191.7619-76.1562c0.7757,3.6234,0.6238,7.8544-1.8768,10.7998c-1.687,1.6436-4.2581,1.4971-6.4332,1.3723
			c2.5169-2.6416,5.5708-5.1097,6.6394-8.744c0.895-2.7881-0.2224-5.7606-1.9311-7.9846
			c-2.9508-3.8404-6.9702-6.6719-11.0059-9.2647c3.1841,4.6215,4.9904,10.5069,3.3468,16.0506
			c-2.6905,9.498-10.3062,17.0161-11.6894,26.986c2.6037-7.2577,8.8471-12.1396,14.4775-17.0052
			c3.7862,1.3235,7.8815-0.2224,10.968-2.4681c4.0899-3.0702,5.7281-8.4728,5.343-13.4198
			c-0.2766-3.5692-1.8063-6.8455-2.7501-10.2574c-2.3162,5.8203-0.4828,12.1234-1.7249,18.1118
			c0.0217-4.2635-0.2929-8.5162-0.3743-12.7743c-0.0434-4.1876,2.1426-7.9954,4.9307-10.9788
			c-3.1136,0.7865-5.983,2.7176-7.4205,5.6521C190.0967-85.7464,190.7802-80.7072,191.7619-76.1562z"/>
		<path fill="#245983" d="M73.3979-75.1473c0.3797,0.4556,0.7594,0.9113,1.1391,1.3669c3.8567-1.5568,5.7552-5.4731,7.7839-8.8254
			C78.9416-80.718,74.9818-78.9606,73.3979-75.1473z"/>
		<path fill="#245983" d="M132.1162-72.6575c0.3255-0.6618,1.2801-1.3561,0.7757-2.1589c-1.7195-3.3522-5.3864-4.9361-8.4836-6.7424
			C126.2959-78.1035,128.3517-74.3499,132.1162-72.6575z"/>
		<path fill="#FCFEFD" d="M54.8576-55.0393c-1.4483,3.0322-3.9977,5.3158-5.6467,8.2124c3.2112-0.971,5.9017-3.1841,9.1834-3.9977
			c3.3305-1.1662,6.8889-0.5045,10.214,0.3092c-0.6021-1.79-1.3778-3.5475-1.5731-5.4406
			c-0.2278-2.0829,0.2875-4.1388,0.6835-6.1674c-2.0721-0.0705-4.193,0.0814-6.2054-0.5099
			c-1.8497-0.5316-3.4661-1.611-5.1151-2.5603C56.6965-61.7546,56.5609-58.1312,54.8576-55.0393z"/>
		<path fill="#FCFEFD" d="M146.0512-62.1398c0.3417,1.8605,0.7811,3.7265,0.7106,5.6359c-0.1031,2.1046-0.9384,4.0628-1.6382,6.021
			c2.9725-0.7106,6.1024-1.432,9.14-0.6401c3.7211,0.7323,6.7858,3.0973,10.2954,4.372c-1.6978-3.1136-4.4697-5.5111-5.9125-8.782
			c-1.5514-2.9671-1.5025-6.4007-1.291-9.6499c-1.8497,1.0252-3.6397,2.2565-5.7335,2.7176
			C149.794-62.0693,147.9063-62.2049,146.0512-62.1398z"/>
		<path fill="#FCFEFD" d="M10.1992-57.323c-3.3739,5.5491-1.074,13.3818,4.1713,16.9456c5.2941,3.7102,11.9498,4.1659,18.166,4.8222
			c-4.7626,1.036-9.6553,0.4068-14.4721,0.7269c-3.8241,0.7811-6.0915,4.3449-8.7874,6.8346
			c0.7431,0.9601,1.3778,2.0884,2.4735,2.6959c1.1933,0.5912,2.5494,0.6184,3.8404,0.7974
			c-1.5893,1.1717-3.1841,2.4789-4.0465,4.3069c-1.7358,3.515-1.2476,7.5452-1.8931,11.3097
			c3.6343-0.6835,7.491-0.2441,10.9408-1.7683c1.9745-0.8245,3.401-2.4843,4.5727-4.2038c0.2224,1.2042,0.32,2.4572,0.7865,3.6018
			c0.5533,1.2259,1.7738,1.9039,2.7989,2.6905c2.5169-2.7664,6.1295-5.088,6.8455-9.0098c0.2224-4.7408-0.3472-9.5414,0.6943-14.228
			c0.4014,3.3251,0.499,6.7044,1.3669,9.959c1.0957,4.5293,3.1678,9.2213,7.274,11.7762c3.8567,2.3216,9.1074,3.0051,13.0509,0.5207
			c2.4138-1.4429,3.4065-4.6758,2.2891-7.2469c-0.5207-1.7737-2.0775-3.7156-4.1496-3.1353
			c-2.4843,0.4773-3.0539,4.1984-0.8733,5.4406c1.4591,1.0903,3.1353,0.0488,4.4371-0.7485
			c-0.4665,1.4863-0.7431,3.3088-2.2457,4.1333c-2.6796,1.573-6.2054,0.7052-8.0822-1.7032
			c1.394-0.8082,3.5204-2.2185,2.3596-4.0899c-1.687-2.0938-4.7246-2.0612-6.8889-3.477c-4.4317-2.327-6.1512-7.5995-6.2759-12.3132
			c1.215,2.8586,1.9853,6.1078,4.41,8.2395c2.2619,2.0124,5.1206,3.797,8.2612,3.5746c2.5874-0.1031,5.343-1.7575,5.6576-4.5239
			c-2.0124-0.5316-3.9977-1.1608-6.0101-1.6924c0.8842-0.5912,2.2023-1.0252,2.2294-2.2999
			c-0.2875-2.2457-2.7664-2.9129-4.6486-3.222c-2.1589-0.2441-4.3937-1.394-5.1531-3.5529
			c-1.0577-2.5765,0.7865-5.0392,0.9384-7.5995c-2.1535,0.1085-3.9869,1.7738-6.1837,1.4266
			c-2.3921-0.1953-4.2364-2.2728-4.6269-4.5619c-0.3797-1.9853-0.6672-4.6052-2.8586-5.4243
			c-1.5242-0.4719-2.2077,1.0795-2.8695,2.1101c-0.5045-2.0016-1.1283-3.9706-1.6761-5.9559
			c-2.7122,0.2712-4.3395,2.9888-4.5239,5.5057c-0.2766,3.4173,1.7792,6.4875,4.0574,8.8362
			c2.007,2.148,5.0338,2.6308,7.5452,3.9435c-4.9144-0.141-10.3984-2.1752-12.4814-6.992c-1.1933-2.1263-1.1825-5.2887-3.6777-6.417
			c-1.7738-0.3146-2.6308,1.4374-3.439,2.6471c-2.4626-1.7249-3.3088-5.2073-1.9094-7.8598
			c0.857-1.6381,2.7881-2.0341,4.3991-2.5223c-0.6238,1.0849-1.7141,2.2077-1.2856,3.5746
			c0.3906,1.9582,2.9617,3.0214,4.5944,1.8226c1.4374-0.8896,1.7846-3.0105,0.716-4.3177
			C17.419-60.6698,12.2496-60.7566,10.1992-57.323 M32.1026-31.3622c-1.8171,2.6525-3.0864,5.6738-3.477,8.8742
			c-1.7304,0.2007-3.5204,0.3689-5.0826,1.2096c-2.3325,1.2476-4.2038,3.1624-6.2705,4.7843
			c1.6436-2.1914,3.6343-4.1605,4.871-6.6394c0.7431-1.4754,0.8191-3.1515,1.0469-4.7571
			C26.4016-28.3083,29.3742-29.6698,32.1026-31.3622z"/>
		<path fill="#FCFEFD" d="M42.6637-44.8742c-1.6653-3.3794-3.7862-6.5851-6.6502-9.0695c-3.0322-2.7013-6.7695-4.513-10.6642-5.6033
			C31.4788-55.0936,37.2123-50.1303,42.6637-44.8742z"/>
		<path fill="#FCFEFD" d="M169.0558-44.7982c5.3158-5.408,11.2229-10.1652,17.2168-14.7921
			c-3.298,1.074-6.5472,2.4626-9.3027,4.5944C173.4712-52.3868,170.8675-48.7363,169.0558-44.7982z"/>
		<path fill="#FCFEFD" d="M190.8995-58.3156c-1.3886,1.1337-1.3073,3.5258,0.1519,4.5673c1.4917,1.2422,4.0845,0.5153,4.6595-1.3561
			c0.6943-1.4754-0.4556-2.8315-1.2368-3.9652c1.6599,0.5424,3.7753,0.9438,4.5402,2.7556
			c1.2476,2.7013,0.3526,5.9667-2.0016,7.7514c-0.7486-1.3235-1.8334-3.3251-3.6885-2.5928
			c-2.3379,1.2422-2.2348,4.334-3.477,6.4007c-2.1372,4.7463-7.5886,6.7696-12.4922,6.8509
			c2.6362-1.2205,5.6793-1.8497,7.7514-4.0465c2.1643-2.3162,4.1767-5.2996,3.8892-8.6192
			c-0.1085-2.5332-1.7412-5.408-4.5293-5.5545c-0.4882,1.9799-1.1662,3.9055-1.6436,5.8854
			c-0.5587-1.1228-1.5676-2.7013-3.0485-1.9961c-3.5312,1.8334-1.5459,7.2632-5.1422,9.1454
			c-2.4084,1.7087-5.2074,0.2224-7.5778-0.7052c-0.1953,0.1844-0.5858,0.5424-0.7811,0.7214
			c0.2929,1.5513,1.0306,2.9779,1.291,4.5347c0.2983,2.5928-1.6381,5.1694-4.2093,5.6359c-2.0884,0.4936-4.947,0.6563-5.8366,2.9942
			c-0.499,1.5242,1.0849,2.2077,2.148,2.799c-2.0938,0.5641-4.1659,1.1879-6.2108,1.9039c0.716,1.9961,2.3053,3.6397,4.4208,4.1116
			c3.7916,1.0198,7.4747-1.2313,10.1163-3.759c2.1806-2.0992,2.761-5.1694,3.9706-7.8273
			c-0.1302,4.7463-1.8714,10.0838-6.3681,12.3783c-2.1969,1.3941-5.3321,1.3127-6.8997,3.6018
			c-0.8028,1.8931,1.1011,3.0376,2.4409,3.8892c-1.6219,2.0667-4.3503,3.081-6.8943,2.224
			c-2.186-0.4665-2.9671-2.7827-3.4661-4.6812c1.0686,0.537,2.1209,1.5134,3.4173,1.2151c1.7466-0.2549,2.8803-2.2294,2.3162-3.8838
			c-0.4611-1.8009-2.8749-2.7176-4.3937-1.611c-2.9671,2.4192-3.2003,7.7839,0.2604,9.9048
			c5.5111,3.477,13.4089,1.2205,16.9944-4.0194c3.7265-5.2399,4.2472-11.8684,4.8385-18.0576
			c1.3181,4.8168,0.2387,9.856,0.8191,14.7433c1.0198,3.5963,4.3557,5.7823,6.7641,8.4186c0.8733-0.6672,1.828-1.2639,2.5006-2.1535
			c0.7919-1.2205,0.7865-2.7284,0.9818-4.1171c1.1662,1.5025,2.3867,3.0756,4.1496,3.9109
			c3.5204,1.866,7.6429,1.3127,11.4507,2.0124c-0.6726-3.8241-0.1356-7.9521-2.0124-11.4887
			c-0.8408-1.7466-2.3596-2.9996-3.9272-4.0682c1.2259-0.1682,2.4789-0.2821,3.6397-0.7431
			c1.2368-0.537,1.9148-1.7792,2.7013-2.8044c-2.6959-2.403-4.8602-5.8311-8.5433-6.775c-4.8548-0.4502-9.818,0.3471-14.624-0.7703
			c6.6882-0.716,14.0924-1.2313,19.3757-5.9125c3.5204-3.0864,5.0392-8.131,4.1659-12.6821
			c-0.5208-2.4626-2.1209-4.9253-4.6432-5.6521C194.8972-60.3063,192.5702-59.6717,190.8995-58.3156 M187.3194-27.8906
			c-0.0868,4.692,3.2763,8.1799,6.1186,11.4887c-2.1806-1.6544-4.1171-3.6723-6.5797-4.9307
			c-1.5188-0.8082-3.2546-0.9547-4.9253-1.1662c-0.4665-3.2003-1.7195-6.2163-3.477-8.9176
			C181.114-29.6101,184.1299-28.368,187.3194-27.8906z"/>
		<path fill="#FCFEFD" d="M66.0371-29.0569c-1.1554,3.3902,0.4773,6.8509,2.3162,9.6444c3.1732,4.4696,9.0261,6.2542,14.3039,5.4786
			c3.6831-0.3743,6.8997-2.3325,10.3604-3.4716c-6.1024-1.9473-12.4705,0.5099-18.6488-0.6726
			c4.014,0.0109,8.0009-0.4665,11.966-1.0469c4.5673-0.575,9.1508,1.2205,12.5464,4.231c-1.0578-3.4227-3.6451-6.4007-7.1167-7.4747
			c-4.231-1.2801-8.7386-0.4068-12.8719,0.8136c-3.5258,1.0306-7.6537,1.1934-10.8269-0.895
			c-1.8822-1.5351-2.0829-4.1984-1.9528-6.4495c2.8478,2.3867,5.6304,5.2996,9.4329,6.0156
			c2.9454,0.5641,5.8094-0.9384,7.8978-2.8966c3.4227-3.1949,5.8474-7.2686,8.1202-11.3151
			c-4.0303,3.1461-9.0966,5.4135-14.3094,4.7083c-10.3767-1.3832-18.703-9.3678-29.3022-9.9482
			C55.438-40.3232,60.7755-34.351,66.0371-29.0569z"/>
		<path fill="#FCFEFD" d="M120.1393-37.1553c1.4374,2.685,3.0213,5.305,4.8602,7.7351c2.3921,3.1244,5.5003,6.4441,9.6933,6.6502
			c4.41-0.0542,7.7513-3.3631,10.8161-6.1295c5.3484-5.3213,10.6588-11.4345,18.242-13.4523
			c-9.9428,0.6021-17.8894,7.5669-27.4091,9.6716C130.5811-31.3134,124.5601-33.4288,120.1393-37.1553z"/>
		<path fill="#FCFEFD" d="M61.8658-25.7209c-1.3561-3.5258-3.1515-6.9485-5.7986-9.6824c-2.7447-2.9888-6.341-5.0555-10.0838-6.5417
			C51.6518-36.9167,56.946-31.4815,61.8658-25.7209z"/>
		<path fill="#FCFEFD" d="M149.8862-25.6992c4.8277-5.8528,10.2194-11.2066,15.8553-16.2838
			c-2.864,1.1717-5.6413,2.6145-8.0117,4.6161C154.025-34.3618,151.4376-30.1688,149.8862-25.6992z"/>
		<path fill="#245983" d="M22.1436-23.1335c-1.2367,2.4789-3.2275,4.4479-4.871,6.6394c2.0667-1.6219,3.9381-3.5367,6.2705-4.7843
			c1.5622-0.8408,3.3522-1.0089,5.0826-1.2096c0.3906-3.2003,1.6598-6.2217,3.477-8.8742c-2.7284,1.6924-5.701,3.0539-8.9122,3.4716
			C22.9626-26.285,22.8867-24.6089,22.1436-23.1335z"/>
		<path fill="#245983" d="M181.9331-22.4989c1.6707,0.2116,3.4065,0.358,4.9253,1.1662c2.4626,1.2584,4.3991,3.2763,6.5797,4.9307
			c-2.8423-3.3088-6.2054-6.7967-6.1186-11.4887c-3.1895-0.4773-6.2054-1.7195-8.8633-3.5258
			C180.2136-28.7151,181.4666-25.6992,181.9331-22.4989z"/>
		<path fill="#FCFEFD" d="M143.735-22.5368c-3.1895,2.2185-7.4042,2.0124-10.9734,0.9601
			c-4.3395-1.2747-9.1617-2.186-13.5174-0.5262c-3.0864,1.1554-5.3321,3.8784-6.3356,6.9648
			c2.2402-1.6165,4.6215-3.1407,7.3716-3.6994c3.6994-0.971,7.4422,0.2224,11.147,0.4828c1.8877,0.179,3.7807,0.217,5.6684,0.32
			c-6.1078,1.0794-12.362-1.2693-18.3993,0.5912c3.5204,1.2422,6.8509,3.2003,10.6371,3.5475
			c4.1171,0.4448,8.6192-0.3634,11.7924-3.1732c3.3088-2.864,5.4677-7.3283,4.7788-11.7491
			C145.4925-26.681,145.5739-24.0502,143.735-22.5368z"/>
	</g>
</pattern>
<rect fill="url(#New_Pattern_2)" width="2560" height="1600"/>
</svg>
